<svg width="1697px" height="509px" viewBox="0 0 1697 509" version="1.1" xmlns="http://www.w3.org/2000/svg" xmlnsXlink="http://www.w3.org/1999/xlink"> {/* xmlns:sketch="http://www.bohemiancoding.com/sketch/ns */}
    <title>City of Dallas Skyline</title>
    <desc>Created with Sketch.</desc>
    <g id="Page-1" stroke="none" stroke-width="1" fill="none" fill-rule="evenodd"> {/* sketch:type="MSPage" */}
        <g id="Skyline" transform="translate(23.000000, 9.000000)" stroke="#979797 " > {/* sketch:type="MSLayerGroup" */}
            <g id="Group" transform="translate(379.000000, 0.000000)" > {/* sketch:type="MSShapeGroup" */}
                <path d="M2.10742188,484.193359 L0.095703125,276.505859 L45.4355469,193.533203 L59.6601562,195.697266 L107.507812,284.208984 L108.666016,473.128906 L3.23828125,286.28125" id="Path-1"></path>
                <path d="M312.896484,497.519531 L310.59375,328.464844 L314.363281,353.478516 L336.345703,353.849609 L384.679688,328.945312 L317.085938,328.007812 L402.537109,326.441406 L402.537109,492.742844 L336.833984,499.550781 L336.833984,361.03904" id="Path-2"></path>
                <path d="M360.638672,325.65625 L362.097656,163.955078 L425.357422,157.347656 L485.851562,163.552734 L487.841797,283.685547 L432.361328,287.646484 L432.361328,494.925781 L426.066406,494.925781 L426.066406,162.796875" id="Path-3"></path>
                <path d="M296.605469,48.6586169 L255.96875,40.2304688 L255.96875,474.241455 L243.476562,474.238281 L243.476563,39.1541702 L204.609375,44.0390625 L203.699219,474.023437 L243.203125,492.023437 L258.894531,492.023437 L299.774698,474.023437 L296.605469,48.6586169 Z" id="Path-4"></path>
                <path d="M214.855469,42.5136719 L214.855469,30.40625 L248.201172,26.3242188 L283.556641,31.2558594 L284.4375,42.5507812 L290.667969,43.5332031 L290.015625,18.5136719 L248.082031,12.3632812 L212.208984,18.5136719 L212.208984,40.2089844 L207.146484,39.5957031 L207.146484,7.56054687 L249.21875,0.560546875 L293.552734,7.56054687 L294.90625,42.8886719" id="Path-5"></path>
                <path d="M488.460938,284.384766 L567.251953,289.970703 L567.191406,393.246094 L548.617188,394.271484 L548.617188,507.59375 L483.191406,508.943359 L480.919922,287.84375" id="Path-6"></path>
                <path d="M503.1875,281.84375 L503.1875,215.664266 L525.597656,214.769531 L597.212891,222.195312 L596.910156,340.603516 L590.087891,340.407227 L590.087891,223.388996 L583.053711,222.583984 L583.053711,342.809571 L575.22168,342.474609 L575.22168,222.190186 L567.943359,221.59375 L567.943359,285.652776 L557.207031,284.71875 L557.207031,220.87109 L548.262695,219.851562 L548.262695,283.685591 L537.87207,281.945312 L537.87207,218.325065 L526.712832,218.325065 L526.712832,283.205464" id="Path-7"></path>
                <path d="M567.844727,392.624023 L588.858398,391.652344 L589.217773,383.907227 L599.495117,382.927734 L599.083984,368.098633 L612.133789,367.56543 L612.5625,381.415039 L630.80957,381.579102 L630.80957,486.472656" id="Path-8"></path>
                <path d="M553.764648,454.317383 L553.764648,400 L559.703383,400 L559.703383,453.906379 L564.990078,453.906379 L564.990078,400 L569.853383,400 L569.853383,453.929702 L575.657257,453.929702 L575.657257,400 L580.801768,400 L580.801768,453.638087 L584.473449,453.638087 L584.473449,400 L590.192383,400 L590.192383,453.321913 L594.641626,453.321913 L594.641626,400 L599.39597,400 L599.39597,453.998079" id="Path-9"></path>
            </g>
            <g id="Tower" transform="translate(753.000000, 135.000000)"> {/* sketch:type="MSShapeGroup" */}

                <path d="M0.121582031,26.5966797 L0.121582031,8.61572266 L5.38574219,7.31054688 L10.9033203,8.79052734 C10.9033203,8.79052734 10.9552688,11.3674113 10.981243,12.6558532 C11.0614478,16.6343785 11.2207031,24.5341797 11.2207031,24.5341797 L6.69506836,22.4772949 L9.92407227,20.9099121 L6.71630859,18.5258789 L9.92895508,16.6630859 L6.86230469,14.3596191 L9.3359375,12.9870605 L6.85522461,10.854248 L9.79223633,9.83691406" id="Path-10"></path>
                <path d="M5.60986328,24.7158203 L5.53061728,5.00408205 C5.52496881,3.59907553 5.51367188,0.7890625 5.51367188,0.7890625 L9.39013672,3.74560547 L9.39013672,6.68212891 L5.20849609,5.51074219 L1.02685547,6.73046875 L1.02685547,3.80322266 L4.30615234,1.11279297" id="Path-11"></path>
                <path d="M0.230712891,26.2138672 L4.44287109,24.6611328 L1.34375,22.84375 L4.27172852,20.8330078 L1.21191406,18.9770508 L4.3125,16.8156738 L1.17138672,14.9458008 L4.41479492,12.8500977 L1.23632812,10.9348145 L4.49975586,8.60009766" id="Path-12"></path>
            </g>
            <g id="Tower" transform="translate(797.000000, 131.000000)"> {/* sketch:type="MSShapeGroup" */}
                <path d="M0.121582031,26.5966797 L0.121582031,8.61572266 L5.38574219,7.31054688 L10.9033203,8.79052734 C10.9033203,8.79052734 10.9552688,11.3674113 10.981243,12.6558532 C11.0614478,16.6343785 11.2207031,24.5341797 11.2207031,24.5341797 L6.69506836,22.4772949 L9.92407227,20.9099121 L6.71630859,18.5258789 L9.92895508,16.6630859 L6.86230469,14.3596191 L9.3359375,12.9870605 L6.85522461,10.854248 L9.79223633,9.83691406" id="Path-10"></path>
                <path d="M5.60986328,24.7158203 L5.53061728,5.00408205 C5.52496881,3.59907553 5.51367188,0.7890625 5.51367188,0.7890625 L9.39013672,3.74560547 L9.39013672,6.68212891 L5.20849609,5.51074219 L1.02685547,6.73046875 L1.02685547,3.80322266 L4.30615234,1.11279297" id="Path-11"></path>
                <path d="M0.230712891,26.2138672 L4.44287109,24.6611328 L1.34375,22.84375 L4.27172852,20.8330078 L1.21191406,18.9770508 L4.3125,16.8156738 L1.17138672,14.9458008 L4.41479492,12.8500977 L1.23632812,10.9348145 L4.49975586,8.60009766" id="Path-12"></path>
            </g>
            <g id="Tower" transform="translate(841.000000, 133.000000)"> {/* sketch:type="MSShapeGroup" */}
                <path d="M0.121582031,26.5966797 L0.121582031,8.61572266 L5.38574219,7.31054688 L10.9033203,8.79052734 C10.9033203,8.79052734 10.9552688,11.3674113 10.981243,12.6558532 C11.0614478,16.6343785 11.2207031,24.5341797 11.2207031,24.5341797 L6.69506836,22.4772949 L9.92407227,20.9099121 L6.71630859,18.5258789 L9.92895508,16.6630859 L6.86230469,14.3596191 L9.3359375,12.9870605 L6.85522461,10.854248 L9.79223633,9.83691406" id="Path-10"></path>
                <path d="M5.60986328,24.7158203 L5.53061728,5.00408205 C5.52496881,3.59907553 5.51367188,0.7890625 5.51367188,0.7890625 L9.39013672,3.74560547 L9.39013672,6.68212891 L5.20849609,5.51074219 L1.02685547,6.73046875 L1.02685547,3.80322266 L4.30615234,1.11279297" id="Path-11"></path>
                <path d="M0.230712891,26.2138672 L4.44287109,24.6611328 L1.34375,22.84375 L4.27172852,20.8330078 L1.21191406,18.9770508 L4.3125,16.8156738 L1.17138672,14.9458008 L4.41479492,12.8500977 L1.23632812,10.9348145 L4.49975586,8.60009766" id="Path-12"></path>
            </g>
            <g id="Group" transform="translate(0.000000, 78.000000)"> {/* sketch:type="MSShapeGroup" */}
                <path d="M796.141846,54.0830994 L796.141846,18.6157227 L802.283366,17.3105469 L808.72054,18.7905273 C808.72054,18.7905273 808.781147,21.3674113 808.81145,22.6558532 C808.905022,26.6343785 808.81145,54.0830994 808.81145,54.0830994 L803.997762,50.1902161 L807.424275,48.6100998 L803.997762,45.778511 L807.424275,44.3198471 L803.997762,41.9771805 L807.424275,39.8954773 L803.997762,37.4799423 L807.424275,35.6968231 L803.758179,33.4184723 L807.80365,31.3218231 L804.004608,29.2285004 L807.617844,27.2842331 L803.885025,25.3457794 L807.695282,23.7150116 L804.042603,21.7506104 L807.520889,19.686348" id="Path-10"></path>
                <path d="M802.076579,52.2769012 C802.076579,52.2769012 802.483205,21.5746615 802.452387,15.004082 C802.445797,13.5990755 802.432617,10.7890625 802.432617,10.7890625 L806.95516,13.7456055 L806.95516,16.6821289 L802.076579,15.5107422 L797.197998,16.7304688 L797.197998,13.8032227 L801.023844,11.112793" id="Path-11"></path>
                <path d="M796.303329,53.8034515 L800.326645,50.224472 L797.395142,48.2612076 L800.666443,45.6222839 L797.395142,43.6780167 L800.326645,41.7856522 L797.395142,39.6473846 L800.66687,37.0742722 L797.360275,35.3205948 L801.027481,33.5525894 L797.448914,31.2323456 L801.351151,29.2430267 L797.287186,27.3550262 L801.216202,25.5353317 L797.302139,24.1065598 L801.326645,21.8886642 L797.395142,19.5264816" id="Path-12"></path>
                <path d="M1012.06329,298.924462 L1012.29152,260.562409 L1027.8576,254.964506 L1027.8576,249.168126 C1027.8576,249.168126 1092.56253,239.54482 1123.95094,244.356473 C1155.33935,249.168126 1177.10959,253.185783 1200.6871,253.185783 C1224.2646,253.185784 1261.86701,250.671224 1261.86701,250.671224 L1261.9604,254.540234 C1261.9604,254.540234 1271.93323,254.540234 1298.10827,254.540233 C1324.28332,254.540233 1325.96826,257.591395 1325.96826,257.591395 L1325.96826,392.797553 L1267.04297,398.626947 L1012.29152,398.626947" id="Path-22"></path>
                <path d="M988.736816,376.040041 L988.736816,321.52593 L992.610681,321.52593 L992.610681,375.775322 L996.00293,375.775322 L996.00293,321.767036 L1000.53982,321.767036 L1000.53982,375.675116 L1003.7458,375.675116 L1003.7458,321.080427 L1007.80091,321.080427 L1007.80091,375.732698" id="Path-23"></path>
                <path d="M1325.96484,254.820312 L1326.93359,160.146484 L1357.5918,157.015625 L1358.0918,142.570312 L1381.94922,142.408203 L1383.48047,154.222656 L1404.86523,155.050781 L1405.13086,146.46875 L1429.99609,147.021484 L1429.99609,260.066534 L1409.71484,260.828125 L1409.71484,286.075198 L1392.90039,288.509766 L1392.90039,308.909414 L1379.03125,309.517578 L1379.03125,392.788357 L1353.875,396.746094 L1353.875,164.427208" id="Path-24"></path>
                <path d="M1368.67773,387.384766 L1368.67773,237.385291 L1384.87891,236.298828 L1384.5918,304.896484" id="Path-25"></path>
                <path d="M1453.71289,258.367188 L1453.61523,93.2460938 C1453.61523,93.2460938 1453.61523,73.0078125 1441.98828,74.2441406 L1407.24219,78.8046875 C1407.24219,78.8046875 1392.36426,76.4582974 1387.32422,76.8632813 C1382.28418,77.2682651 1378.49414,81.3828125 1378.49414,81.3828125 L1365.81836,81.8320313 C1358.20898,82.8783418 1358.20898,95.2734375 1358.20898,95.2734375 L1358.20898,141.210945" id="Path-26"></path>
                <path d="M1372.32172,140.942444 L1372.32172,95.0516299 L1400.76813,93.2208557 L1400.76813,150.649068" id="Path-27"></path>
                <path d="M1432.10449,259.09375 L1433.47461,90.0166016 C1433.47461,90.0166016 1432.70068,78.4770508 1442.37549,77.2324219 C1452.05029,75.987793 1451.32715,91.6298828 1451.32715,91.6298828 L1451.32715,258.664852" id="Path-28"></path>
                <path d="M1432.00928,90.5898438 L1414.14014,90.8857422 L1398.89355,92.035156 C1398.89355,92.035156 1398.89355,79.6474609 1386.62988,80.6665039 C1374.36621,81.6855468 1374.87744,93.3183596 1374.87744,93.3183596 L1360.18848,94.7163086" id="Path-29"></path>
                <path d="M1518.90979,325.704834 L1518.97644,290.019775 L1498.06531,290.801025 L1495.98755,273.132446 L1489.96619,273.27771 L1489.52319,258.861938 L1485.74854,258.831543 L1485.32764,237.079102 L1479.64697,236.832031 L1475.26709,184.118652 L1470.89111,235.658691 L1462.97754,236.677734 L1462.21436,257.610352 L1450.27686,258.198242 L1450.27686,260.930664 L1411.35449,261.569824" id="Path-30"></path>
                <path d="M1486.54053,327.785645 L1485.979,287.624512 L1395.0332,289.450684 L1395.0332,353.040273" id="Path-31"></path>
                <path d="M1475.1499,203.67334 L1474.80908,257.820801 L1484.29834,257.668457 L1483.92383,242.923828 L1480.61133,246.272461" id="Path-32"></path>
                <path d="M1474.82324,257.533203 L1464.50928,257.202148 L1465.04395,243.216309 L1468.63379,247.163086" id="Path-33"></path>
                <path d="M1481.69824,242.288574 C1481.69824,239.954102 1476.9874,239.137695 1476.88916,246.845215 C1476.79092,254.552734 1482.48584,252.818847 1482.48584,248.480469" id="Path-35"></path>
                <path d="M1471.81034,242.62432 C1471.81034,240.289848 1467.0995,239.473442 1467.00126,247.180961 C1466.90302,254.888481 1472.59794,253.154594 1472.59794,248.816215" id="Path-35" transform="translate(1469.798968, 246.757938) scale(-1, 1) translate(-1469.798968, -246.757938) "></path>
                <path d="M523.552734,334.375 L523.419922,213.956055 L526.317383,213.956053 L528.469727,198.796875 L533.104004,198.796876 L533.758789,194.695312 L544.811883,183.642218 L558.155603,170.298499 L583.259436,195.402332" id="Path-37"></path>
                <path d="M493.221191,333.625 L542.867676,334.67627 L542.867676,348.792229 L556.717773,348.853516 L556.928223,351.828125 L550.914062,352.189453 L550.914062,358.696323 L565.215332,359.506836 L565.337891,363.547363 L564.370117,369.566406 L564.370117,409.441746" id="Path-38"></path>
                <g id="REUNION" transform="translate(0.095703, 0.000000)">
                    <path d="M362.375,407.363281 L362.375,99.5600586 C362.375,99.5600586 387.39209,83.7993164 388.779297,57.6328125 C390.166504,31.4663086 373.246094,0.380859375 335.603516,0.380859375 C297.960937,0.380859375 283.475586,31.7548828 283.475586,57.6328125 C283.475586,83.5107422 311.514648,99.5600586 311.514648,99.5600586 L312.515625,407.363281 L338.549805,380.432129 L338.549805,94.671875" id="Path-36"></path>
                    <circle id="Oval-1" cx="335" cy="56" r="2"></circle>
                    <circle id="Oval-1" cx="335" cy="44" r="2"></circle>
                    <circle id="Oval-1" cx="345" cy="50" r="2"></circle>
                    <circle id="Oval-1" cx="323" cy="50" r="2"></circle>
                    <circle id="Oval-1" cx="344" cy="63" r="2"></circle>
                    <circle id="Oval-1" cx="355" cy="58" r="2"></circle>
                    <circle id="Oval-1" cx="355" cy="46" r="2"></circle>
                    <circle id="Oval-1" cx="345" cy="39" r="2"></circle>
                    <circle id="Oval-1" cx="334" cy="32" r="2"></circle>
                    <circle id="Oval-1" cx="323" cy="38" r="2"></circle>
                    <circle id="Oval-1" cx="314" cy="32" r="2"></circle>
                    <circle id="Oval-1" cx="324" cy="26" r="2"></circle>
                    <circle id="Oval-1" cx="345" cy="29" r="2"></circle>
                    <circle id="Oval-1" cx="353" cy="26" r="2"></circle>
                    <circle id="Oval-1" cx="355" cy="35" r="2"></circle>
                    <circle id="Oval-1" cx="363" cy="30" r="2"></circle>
                    <circle id="Oval-1" cx="365" cy="41" r="2"></circle>
                    <circle id="Oval-1" cx="365" cy="52" r="2"></circle>
                    <circle id="Oval-1" cx="365" cy="65" r="2"></circle>
                    <circle id="Oval-1" cx="334" cy="68" r="2"></circle>
                    <circle id="Oval-1" cx="332" cy="78" r="2"></circle>
                    <circle id="Oval-1" cx="324" cy="60" r="2"></circle>
                    <circle id="Oval-1" cx="325" cy="71" r="2"></circle>
                    <circle id="Oval-1" cx="320" cy="78" r="2"></circle>
                    <circle id="Oval-1" cx="344" cy="74" r="2"></circle>
                    <circle id="Oval-1" cx="355" cy="70" r="2"></circle>
                    <circle id="Oval-1" cx="362" cy="77" r="2"></circle>
                    <circle id="Oval-1" cx="352" cy="81" r="2"></circle>
                    <circle id="Oval-1" cx="340" cy="84" r="2"></circle>
                    <circle id="Oval-1" cx="315" cy="67" r="2"></circle>
                    <circle id="Oval-1" cx="313" cy="55" r="2"></circle>
                    <circle id="Oval-1" cx="296" cy="57" r="2"></circle>
                    <circle id="Oval-1" cx="309" cy="74" r="2"></circle>
                    <circle id="Oval-1" cx="316" cy="84" r="2"></circle>
                    <circle id="Oval-1" cx="328" cy="85" r="2"></circle>
                    <circle id="Oval-1" cx="313" cy="44" r="2"></circle>
                    <circle id="Oval-1" cx="304" cy="50" r="2"></circle>
                    <circle id="Oval-1" cx="304" cy="38" r="2"></circle>
                    <circle id="Oval-1" cx="335" cy="22" r="2"></circle>
                    <circle id="Oval-1" cx="345" cy="19" r="2"></circle>
                    <circle id="Oval-1" cx="357" cy="20" r="2"></circle>
                    <circle id="Oval-1" cx="367" cy="23" r="2"></circle>
                    <circle id="Oval-1" cx="371" cy="35" r="2"></circle>
                    <circle id="Oval-1" cx="373" cy="47" r="2"></circle>
                    <circle id="Oval-1" cx="373" cy="59" r="2"></circle>
                    <circle id="Oval-1" cx="371" cy="71" r="2"></circle>
                    <circle id="Oval-1" cx="325" cy="16" r="2"></circle>
                    <circle id="Oval-1" cx="336" cy="13" r="2"></circle>
                    <circle id="Oval-1" cx="314" cy="21" r="2"></circle>
                    <circle id="Oval-1" cx="376" cy="29" r="2"></circle>
                    <circle id="Oval-1" cx="300" cy="70" r="2"></circle>
                    <circle id="Oval-1" cx="306" cy="62" r="2"></circle>
                    <circle id="Oval-1" cx="295" cy="44" r="2"></circle>
                    <circle id="Oval-1" cx="296" cy="34" r="2"></circle>
                    <circle id="Oval-1" cx="306" cy="28" r="2"></circle>
                    <circle id="Oval-1" cx="307" cy="18" r="2"></circle>
                    <circle id="Oval-1" cx="317" cy="11" r="2"></circle>
                    <circle id="Oval-1" cx="329" cy="7" r="2"></circle>
                    <circle id="Oval-1" cx="340" cy="6" r="2"></circle>
                    <circle id="Oval-1" cx="348" cy="12" r="2"></circle>
                    <circle id="Oval-1" cx="353" cy="7" r="2"></circle>
                    <circle id="Oval-1" cx="362" cy="12" r="2"></circle>
                    <circle id="Oval-1" cx="323" cy="92" r="2"></circle>
                    <circle id="Oval-1" cx="318" cy="96" r="2"></circle>
                    <circle id="Oval-1" cx="312" cy="90" r="2"></circle>
                    <circle id="Oval-1" cx="304" cy="81" r="2"></circle>
                    <circle id="Oval-1" cx="295" cy="76" r="2"></circle>
                    <circle id="Oval-1" cx="292" cy="65" r="2"></circle>
                    <circle id="Oval-1" cx="290" cy="51" r="2"></circle>
                    <circle id="Oval-1" cx="299" cy="24" r="2"></circle>
                    <circle id="Oval-1" cx="359" cy="86" r="2"></circle>
                    <circle id="Oval-1" cx="348" cy="90" r="2"></circle>
                    <circle id="Oval-1" cx="357" cy="94" r="2"></circle>
                    <circle id="Oval-1" cx="367" cy="90" r="2"></circle>
                    <circle id="Oval-1" cx="371" cy="81" r="2"></circle>
                    <circle id="Oval-1" cx="379" cy="66" r="2"></circle>
                    <circle id="Oval-1" cx="379" cy="54" r="2"></circle>
                    <circle id="Oval-1" cx="385" cy="59" r="2"></circle>
                    <circle id="Oval-1" cx="379" cy="41" r="2"></circle>
                    <circle id="Oval-1" cx="371" cy="17" r="2"></circle>
                    <circle id="Oval-1" cx="385" cy="47" r="2"></circle>
                    <path d="M0.0122680664,274.326172 L24.6025391,267.528809 L36.9501953,266.947266 L36.9501953,236.721782 L69.9248047,234.085938 L69.9248047,217.76086 L89.5043945,215.335938 L89.5043945,202.305468 L135.09375,200.15625 L161.016602,203.626465 L161.016602,297.821629 L169.339355,298.248047 L169.339355,301.811045 L215.880859,303.188965 L215.880859,335.346376 L266.616211,336.058594 L266.616211,368.552556 L309.2564,368.552556 L309.256409,406.841797 L5.90039062,406.841797 L5.90039062,299.492188" id="Path-39"></path>
                </g>
                <path d="M677.555664,183.699219 L707.913086,177.257812 L739.741211,177.334961" id="Path-40"></path>
                <path d="M980.226257,158.233521 L1011.71368,160.457001 L1011.71368,259.969499" id="Path-41"></path>
                <path d="M1011.69629,241.09375 L1018.34619,240.760742 L1018.34619,226.05856 L1077.55762,226.05856 L1078.4209,178.703613 L1082.03418,175.232422 L1082.77246,220.480957 L1092.18604,242.785645" id="Path-42"></path>
                <path d="M1122.10059,243.132812 L1123.05664,162.614258 L1151.47168,160.268706 L1150.93604,245.294919 L1152.08057,160.268706 L1217.36914,163.862305 L1217.36914,158.040039 L1151.47168,154.273926 L1123.51758,156.592773 L1123.54883,140.856445 L1151.47168,138.42796 L1151.47168,151.443848 L1152.08057,138.42796 L1219.30566,144.321289 L1219.30566,251.176162" id="Path-43"></path>
                <path d="M1382.27832,357.753906 L1462.26855,355.147461 L1462.51758,374.295898 L1465.08984,373.552734 L1464.64648,326.94043 L1545.36816,325.436523 L1546.90918,313.453125 L1556.56641,310.347656 L1556.96777,303.236328 L1611.27148,304.981445 L1621.85645,313.082031 L1623.45117,330.025391 L1646.6875,339.441406 L1652.97754,350.713867 L1664.42773,350.713867" id="Path-44"></path>
                <path d="M1221.39612,216.727478 L1247.97021,215.865723 L1254.13428,220.786133 L1254.28198,249.921875" id="Path-45"></path>
                <path d="M1275.77686,253.509766 L1276.56299,200.76416 L1288.84277,200.20166 L1289.38477,183.422852 L1301.53223,182.789551 L1302.43896,164.101074 L1322.00049,160.953125 L1323.60156,147.979492 L1357.0752,151.134277" id="Path-46"></path>
                <path d="M1122.28711,176.607422 L1107.93359,178.268555 L1107.93359,240.736776" id="Path-47"></path>
                <path d="M1012.96484,278.214844 C1012.96484,278.214844 1076.5143,278.566918 1113.52539,278.214844 C1147.03972,277.896033 1210.47886,275.0867 1251.95117,274.125 C1291.46092,273.20881 1320.32617,275.291016 1320.32617,275.291016" id="Path-48"></path>
                <path d="M1012.96484,285.214844 C1012.96484,285.214844 1076.5143,285.566918 1113.52539,285.214844 C1147.03972,284.896033 1210.47886,282.0867 1251.95117,281.125 C1291.46092,280.20881 1320.32617,282.291016 1320.32617,282.291016" id="Path-48"></path>
                <path d="M1012.96484,291.214844 C1012.96484,291.214844 1076.5143,291.566918 1113.52539,291.214844 C1147.03972,290.896033 1210.47886,288.0867 1251.95117,287.125 C1291.46092,286.20881 1320.32617,288.291016 1320.32617,288.291016" id="Path-48"></path>
                <path d="M1012.96484,297.214844 C1012.96484,297.214844 1076.5143,297.566918 1113.52539,297.214844 C1147.03972,296.896033 1210.47886,294.0867 1251.95117,293.125 C1291.46092,292.20881 1320.32617,294.291016 1320.32617,294.291016" id="Path-48"></path>
                <path d="M1012.96484,304.214844 C1012.96484,304.214844 1076.5143,304.566918 1113.52539,304.214844 C1147.03972,303.896033 1210.47886,301.0867 1251.95117,300.125 C1291.46092,299.20881 1320.32617,301.291016 1320.32617,301.291016" id="Path-48"></path>
                <path d="M1012.96484,312.214844 C1012.96484,312.214844 1076.5143,312.566918 1113.52539,312.214844 C1147.03972,311.896033 1210.47886,309.0867 1251.95117,308.125 C1291.46092,307.20881 1320.32617,309.291016 1320.32617,309.291016" id="Path-48"></path>
                <path d="M1012.96484,270.214844 C1012.96484,270.214844 1076.5143,270.566918 1113.52539,270.214844 C1147.03972,269.896033 1210.47886,267.0867 1251.95117,266.125 C1291.46092,265.20881 1320.32617,267.291016 1320.32617,267.291016" id="Path-48"></path>
                <path d="M1012.96484,263.214844 C1012.96484,263.214844 1076.5143,263.566918 1113.52539,263.214844 C1147.03972,262.896033 1210.47886,260.0867 1251.95117,259.125 C1291.46092,258.20881 1320.32617,260.291016 1320.32617,260.291016" id="Path-48"></path>
                <path d="M1012.96484,334.214844 C1012.96484,334.214844 1076.5143,334.566918 1113.52539,334.214844 C1147.03972,333.896033 1210.47886,331.0867 1251.95117,330.125 C1291.46092,329.20881 1320.32617,331.291016 1320.32617,331.291016" id="Path-48"></path>
                <path d="M1012.96484,340.214844 C1012.96484,340.214844 1076.5143,340.566918 1113.52539,340.214844 C1147.03972,339.896033 1210.47886,337.0867 1251.95117,336.125 C1291.46092,335.20881 1320.32617,337.291016 1320.32617,337.291016" id="Path-48"></path>
                <path d="M1012.96484,347.214844 C1012.96484,347.214844 1076.5143,347.566918 1113.52539,347.214844 C1147.03972,346.896033 1210.47886,344.0867 1251.95117,343.125 C1291.46092,342.20881 1320.32617,344.291016 1320.32617,344.291016" id="Path-48"></path>
                <path d="M1012.96484,353.214844 C1012.96484,353.214844 1076.5143,353.566918 1113.52539,353.214844 C1147.03972,352.896033 1210.47886,350.0867 1251.95117,349.125 C1291.46092,348.20881 1320.32617,350.291016 1320.32617,350.291016" id="Path-48"></path>
                <path d="M1012.96484,360.214844 C1012.96484,360.214844 1076.5143,360.566918 1113.52539,360.214844 C1147.03972,359.896033 1210.47886,357.0867 1251.95117,356.125 C1291.46092,355.20881 1320.32617,357.291016 1320.32617,357.291016" id="Path-48"></path>
                <path d="M1012.96484,368.214844 C1012.96484,368.214844 1076.5143,368.566918 1113.52539,368.214844 C1147.03972,367.896033 1210.47886,365.0867 1251.95117,364.125 C1291.46092,363.20881 1320.32617,365.291016 1320.32617,365.291016" id="Path-48"></path>
                <path d="M1012.96484,326.214844 C1012.96484,326.214844 1076.5143,326.566918 1113.52539,326.214844 C1147.03972,325.896033 1210.47886,323.0867 1251.95117,322.125 C1291.46092,321.20881 1320.32617,323.291016 1320.32617,323.291016" id="Path-48"></path>
                <path d="M1012.96484,319.214844 C1012.96484,319.214844 1076.5143,319.566918 1113.52539,319.214844 C1147.03972,318.896033 1210.47886,316.0867 1251.95117,315.125 C1291.46092,314.20881 1320.32617,316.291016 1320.32617,316.291016" id="Path-48"></path>
                <path d="M1012.96484,375.214844 C1012.96484,375.214844 1076.5143,375.566918 1113.52539,375.214844 C1147.03972,374.896033 1210.47886,372.0867 1251.95117,371.125 C1291.46092,370.20881 1320.32617,372.291016 1320.32617,372.291016" id="Path-48"></path>
                <path d="M1012.96484,381.214844 C1012.96484,381.214844 1076.5143,381.566918 1113.52539,381.214844 C1147.03972,380.896033 1210.47886,378.0867 1251.95117,377.125 C1291.46092,376.20881 1320.32617,378.291016 1320.32617,378.291016" id="Path-48"></path>
                <path d="M1012.96484,388.214844 C1012.96484,388.214844 1076.5143,388.566918 1113.52539,388.214844 C1147.03972,387.896033 1210.47886,385.0867 1251.95117,384.125 C1291.46092,383.20881 1320.32617,385.291016 1320.32617,385.291016" id="Path-48"></path>
            </g>
        </g>
        <g id="pegasus" transform="translate(1046.000000, 42.000000)"> {/* sketch:type="MSLayerGroup" */}
            <path d="M181.858282,59.4849949 C176.649746,51.9722267 160.368687,37.9715569 160.368687,37.9715569 C160.368687,37.9715569 164.852925,34.8865056 164.74421,32.8865177 C164.635496,30.8865298 165.167913,28.5991581 159.766645,25.8860108 C167.922597,26.6306982 165.503323,35.0441945 165.503323,35.0441945 C165.503323,35.0441945 176.444079,33.6703699 179.872726,33.6703699 C183.301373,33.6703699 184.772968,30.907795 181.858281,29.0135034 C186.301053,26.7249555 186.54676,23.9692581 183.544828,20.9323542 C179.97758,17.3235479 168.672544,19.3986064 161.651789,16.3855529 C154.631035,13.3724994 150.610831,13.7385934 144.710137,14.017122 C139.513559,17.3984221 133.557244,16.3855529 133.557244,16.3855529 C133.557244,16.3855529 137.919783,21.2239376 136.151252,20.7406792 C134.382721,20.2574207 129.544124,16.7531746 129.544124,16.7531746 C129.544124,16.7531746 127.79556,19.2911461 127.790151,19.3052079 C126.766744,21.9653034 127.096588,24.3494858 127.096588,24.3494858 L135.824098,23.3125205 L133.912774,26.2310645 L127.275466,26.9520724 L125.939456,32.148496 C125.939456,32.148496 133.447946,30.2114338 133.912774,30.9673012 C134.377602,31.7231687 125.104993,35.0441938 125.104993,35.0441938 L125.104993,37.471858 C125.104993,37.471858 132.658617,36.2981562 132.988187,36.966465 C133.330594,37.6608075 126.189569,41.2583476 126.189569,41.2583476 L127.096588,43.1922849 C127.096588,43.1922849 133.912774,41.2583476 134.6889,41.7209648 C135.465026,42.1835821 128.881601,46.1393692 128.881601,46.1393692 L129.807647,48.3382247 L135.643764,46.6289296 L130.599327,50.9667823 L130.950761,52.7635038 L137.64529,51.5614767 L135.277817,54.5046723 L130.76744,54.9924273 L132.657377,58.5002493 L139.074078,56.9117819 L133.912774,60.9032966 L135.37156,62.3713182 L140.507899,61.6504491 L137.510299,66.0802419 L139.132962,67.1768572 L142.994357,65.2630579 L142.353291,68.9917723 C142.353291,68.9917723 153.000595,71.2466118 154.343833,71.7352551 C161.069192,74.1818073 142.903809,77.0402847 133.912776,66.0802419 C124.921744,55.1201991 130.183039,37.3304758 108.079599,37.3304758 C86.419392,37.3304758 0.151655,46.6289296 0.151655,46.6289296 L9.25656932,52.4969884 L78.2022609,45.6078663 C78.2022599,43.4018584 93.8089367,40.9705832 104.878711,41.2583476 C115.948486,41.5461119 122.554122,52.0258994 124.613152,61.6504491 C126.672183,71.2749988 143.759858,78.3979989 143.759858,78.3979989 C143.759858,78.3979989 135.500718,80.9081593 128.341778,72.1932892 C121.182839,63.4784191 121.611698,60.5871655 120.297624,55.1260321 C118.98355,49.6648987 106.561926,41.9258163 101.85837,44.5768034 C97.1548137,47.2277905 102.592206,50.0171045 102.592206,50.0171045 C102.592206,50.0171045 102.525266,52.5514303 105.854198,54.5046723 C109.18313,56.4579142 104.513182,58.0317295 108.671222,60.2427372 C112.829262,62.4537449 108.46818,64.2186623 112.441233,66.5638303 C116.414286,68.9089984 111.994597,71.3058307 115.828772,72.6321576 C119.662947,73.9584844 114.244163,79.0251918 120.65371,79.0251918 C127.063256,79.0251918 117.005634,82.6827985 142.87992,86.3687371 C122.731341,92.9112088 102.326444,79.5781121 90.5386128,80.6601153 C78.7507819,81.7421185 71.603282,92.9112088 71.603282,92.9112088 C71.603282,92.9112088 35.3658384,100.513075 18.9314413,109.684869 C2.49704413,118.856662 13.6818127,140.18983 29.0815585,130.973317 C32.766409,128.76799 28.333278,121.856799 34.4356253,120.708242 C40.5379725,119.559684 44.8596121,108.075499 47.8455126,113.098598 C50.831413,118.121696 52.3860246,108.922682 56.8559186,105.200634 C61.3258126,101.478586 68.0624197,99.7768599 68.0624197,99.7768599 C68.0624197,99.7768599 69.3523287,148.124181 49.6042784,140.826745 C46.8855803,165.240047 36.3446573,168.022139 37.0707181,174.572944 C36.8061039,175.118594 33.5584649,174.68405 30.6222832,178.119167 C27.6861014,181.554284 30.2573089,184.02528 33.2959834,183.178097 C36.334658,182.330914 44.144107,180.555442 48.3554766,162.658501 C52.5668462,144.761561 60.5567254,146.607349 75.7057693,141.542823 C101.615053,132.881006 99.096283,111.517958 113.538656,113.828008 C109.247292,116.524271 107.339371,118.666671 107.339371,118.666671 C116.62205,118.666671 147.966743,129.659687 171.437071,119.096095 C172.263957,117.863653 168.740595,111.187854 163.591791,108.632696 C169.981341,107.170264 172.854471,114.68519 176.719755,118.666671 C191.713141,118.666671 201.183584,112.576955 206.700973,113.828008 C205.930194,120.98434 200.03311,123.758377 200.862218,128.444269 C198.283789,128.038732 191.713143,128.902858 191.713142,134.225943 C191.713141,139.549027 205.411897,131.517458 208.145593,128.444269 C210.879289,125.371079 212.720549,112.576955 212.720549,112.576955 C212.720549,112.576955 218.283211,105.336183 229.518529,122.737591 C240.753848,140.138999 243.711695,137.640783 243.711695,137.640783 L243.711695,143.505509 C243.711695,143.505509 249.177214,146.145167 249.345186,146.798688 C249.700438,148.180845 243.711696,146.798688 243.711696,146.798688 C243.711696,146.798688 240.344155,149.065248 245.514623,149.655499 C248.491273,149.995307 252.653564,151.061822 251.543642,144.145201 C250.433721,137.22858 225.654079,111.215075 225.65408,106.31086 C225.654081,101.406645 181.062226,105.090917 180.536707,104.0293 C180.011189,102.967683 186.941255,102.702417 190.432121,99.9319915 C189.986318,91.3685032 193.962427,83.7521929 167.922598,71.1277835 C167.096351,69.7397115 172.536161,69.8672869 172.536161,69.8672869 C172.536161,69.8672869 168.71577,58.4144259 163.591791,50.9667823 C158.467813,43.5191386 151.0349,36.7727241 151.0349,36.7727241 C151.0349,36.7727241 156.077067,36.9679007 156.423964,37.3304758 C160.820598,41.9258163 173.127905,49.8749691 178.231592,70.5080903 C179.156739,74.2482618 186.941255,77.4155449 186.941255,77.4155449 C186.941255,71.8569161 185.424982,64.6295875 181.858282,59.4849949 Z" id="Path-67" fill="#FFB3B3"></path> {/* sketch:type="MSShapeGroup" */}
            <path d="M13.4257195,54.8763216 L18.3237073,57.8884029 C18.3237073,57.8884029 81.7384003,53.4449995 80.2435057,50.1515426 C78.7486112,46.8580857 13.4257195,54.8763216 13.4257195,54.8763216 Z" id="Path-68" fill="#FFB4B4" ></path>  {/* sketch:type="MSShapeGroup" */}
            <path d="M21.0740688,59.8405338 L24.5954871,62.4143023 C24.5954871,62.4143023 86.937478,58.4861527 84.5587569,56.1557061 C82.1800358,53.8252596 21.0740688,59.8405338 21.0740688,59.8405338 Z" id="Path-69" fill="#FFB4B4" ></path> {/* sketch:type="MSShapeGroup" */}
            <path d="M28.2846713,65.4936026 L39.6055393,68.8251134 C39.6055393,68.8251134 93.8783772,64.4108755 90.6102744,61.7748877 C87.3421716,59.1388999 28.2846713,65.4936026 28.2846713,65.4936026 Z" id="Path-70" fill="#FFB4B4" ></path> {/* sketch:type="MSShapeGroup" */}
            <path d="M41.4754074,72.2771742 L45.2884717,74.5715113 C45.2884717,74.5715113 95.4382671,70.865299 91.8762962,67.9807085 C87.8149676,64.6917233 41.4754074,72.2771742 41.4754074,72.2771742 Z" id="Path-71" fill="#FFB3B3" ></path> {/* sketch:type="MSShapeGroup" */}
            <path d="M82.0830992,74.3429109 C74.738291,75.5070888 59.1347171,77.2302758 59.1347171,77.2302758 C59.1347171,77.2302758 57.6642146,79.5729229 69.5584258,79.7087709 C81.452637,79.844619 88.0707323,80.260134 95.1766189,77.6419232 C97.4741676,76.7953762 96.7285637,75.3019975 96.7303982,74.0376474 C96.7322327,72.7732972 95.1855072,71.5160987 95.1855072,71.5160987 C95.1855072,71.5160987 86.7552211,73.6023631 82.0830992,74.3429109 Z" id="Path-72" fill="#FFB3B3"></path> {/* sketch:type="MSShapeGroup" */}
            <path d="M117.079237,84.190782 C119.716826,84.1907835 123.927645,83.924407 117.079239,80.0473662 C110.230833,76.1703254 118.219161,74.5242913 112.485121,73.5265602 C106.751081,72.5288291 113.330061,68.3476358 109.313122,66.6199388 C105.296184,64.8922419 109.452835,60.6616065 105.620327,60.6616065 C101.78782,60.6616065 104.090713,56.4018054 100.305147,54.996316 C96.5195804,53.5908265 102.515685,51.2157983 98.7315076,49.6180953 C95.4162263,48.2183631 100.957259,43.2338775 94.291542,43.6667071 C87.6258246,44.0995368 84.0924009,44.3973674 84.0924009,44.3973674 C84.0924009,44.3973674 77.6332733,47.4466693 82.0935142,48.8293824 C86.5537551,50.2120955 81.3806481,54.1033018 86.7680453,54.7977138 C92.1554426,55.4921257 87.1223264,58.3521308 93.3368875,59.6159606 C99.5514486,60.8797903 93.1469009,62.8495604 96.8398348,63.4677259 C100.532769,64.0858914 93.6492255,69.1887083 97.9197586,70.8808513 C102.190292,72.5729944 102.458746,72.4393902 99.5468671,75.1698173 C98.0453774,76.5777427 101.011353,80.4361059 103.267021,78.6678481 C105.52269,76.8995903 105.316877,82.4668349 107.067447,81.5950716 C108.818017,80.7233083 114.441648,84.1907806 117.079237,84.190782 Z" id="Path-73" fill="#FFB3B3" ></path> {/* sketch:type="MSShapeGroup" */}
            <path d="M192.032842,101.292483 C192.032842,101.292483 224.897958,104.267411 217.076353,93.3422998 C213.5718,88.447189 199.146784,96.0941155 192.032842,98.812044 C193.062491,100.232811 192.032842,101.292483 192.032842,101.292483 Z" id="Path-74" fill="#FFB3B3" ></path>{/* sketch:type="MSShapeGroup" */}
            <path d="M122.23193,37.9548908 C123.217928,37.3552849 122.436169,34.9377928 122.683565,32.1357186 C122.960603,28.9979228 124.322616,29.7088876 123.474343,26.7081947 C122.626069,23.7075017 121.962284,22.3197179 115.081879,20.5773704 C103.419924,17.6241752 47.0604892,6.94865029 39.4444395,4.92088089 C31.8283899,2.89311149 28.8918507,-1.08328261 28.3302236,0.571084398 C27.7685966,2.2254514 30.1614832,7.70352866 37.3423655,9.46400145 C44.5232477,11.2244742 73.2333047,20.1032859 84.9573399,22.5233907 C90.5533983,23.6785432 97.3577522,22.4248738 103.30771,22.5233905 C109.823225,22.6312714 115.261158,24.0953783 115.680728,25.6926869 C116.483449,28.748655 107.720181,26.3365459 101.480619,25.4776969 C95.2410567,24.618848 97.7737908,28.8717577 103.30771,30.1596999 C105.51922,30.674398 97.9803079,30.5627366 99.3979856,33.2337227 C100.815663,35.9047089 105.371729,35.4536187 109.113134,35.4536189 C112.854538,35.4536191 120.1418,39.2259424 122.23193,37.9548908 Z" id="Path-75" fill="#FFB3B3" ></path>{/* sketch:type="MSShapeGroup" */}
            <path d="M36.0768993,11.931664 L40.8837824,17.9013847 C40.8837824,17.9013847 91.5102109,32.4629257 94.7899795,29.6741673 C98.0697482,26.8854089 36.0768993,11.931664 36.0768993,11.931664 Z" id="Path-76" fill="#FFB3B3" ></path>{/* sketch:type="MSShapeGroup" */}
            <path d="M43.413604,21.2106744 L47.9166196,26.079891 C47.9166196,26.079891 83.7324263,36.8232773 88.9015061,34.9800302 C94.0705858,33.1367831 43.413604,21.2106744 43.413604,21.2106744 Z" id="Path-77" fill="#FFB3B3" ></path>{/* sketch:type="MSShapeGroup" */}
            <path d="M50.5842092,29.1075271 L53.2062465,32.6045858 C53.2062465,32.6045858 67.7374436,38.7420764 71.6660553,36.8138333 C75.594667,34.8855901 50.5842092,29.1075271 50.5842092,29.1075271 Z" id="Path-78" fill="#FFB3B3" ></path>{/* sketch:type="MSShapeGroup" */}
            <path d="M53.3012398,35.1850206 L54.8444642,38.1737696 C54.8444642,38.1737696 60.3574086,40.481995 63.2227621,38.8554044 C66.0881155,37.2288139 53.3012398,35.1850206 53.3012398,35.1850206 Z" id="Path-79" fill="#FFB3B3" ></path>{/* sketch:type="MSShapeGroup" */}
            <path d="M42.515334,183.744737 C42.515334,183.744737 25.2404418,183.963615 29.3582067,188.658951 C33.4759716,193.354287 42.515334,183.744737 42.515334,183.744737 Z" id="Path-80" fill="#FFB3B3" ></path>{/* sketch:type="MSShapeGroup" */}
            <path d="M37.1337692,159.496705 C28.495212,162.991819 24.9365743,171.810851 39.4552717,165.223104 C47.8021829,154.185009 41.2215364,152.926179 37.1337692,159.496705 Z" id="Path-81" fill="#FFB3B3" ></path>{/* sketch:type="MSShapeGroup" */}
            <path d="M55.9216105,137.108585 C52.7243362,136.932344 54.5289317,126.672407 60.7659911,129.039796 C66.613383,131.25928 57.5244039,137.196935 55.9216105,137.108585 Z" id="Path-82" fill="#FFB3B3" ></path>{/* sketch:type="MSShapeGroup" */}
        </g>
    </g>
</svg>