<?xml version="1.0" encoding="UTF-8"?>
<svg width="40px" height="40px" viewBox="0 0 40 40" version="1.1" xmlns="http://www.w3.org/2000/svg" xmlns:xlink="http://www.w3.org/1999/xlink">
    <!-- Generator: Sketch 52.6 (67491) - http://www.bohemiancoding.com/sketch -->
    <title>Artboard</title>
    <desc>Created with Sketch.</desc>
    <g id="Artboard" stroke="none" stroke-width="1" fill="none" fill-rule="evenodd">
        <circle id="Oval" fill="#9BD8D8" cx="20" cy="20" r="6"></circle>
        <g id="DoubleArc" transform="translate(22.000000, 21.000000)" fill="#9BD8D8">
            <path d="M16,2.03516405 L16,4.04107378 C15.6702666,4.01387133 15.3367532,4 15,4 C8.372583,4 3,9.372583 3,16 C3,16.3367532 3.01387133,16.6702666 3.04107378,17 L1.03516405,17 C1.01185303,16.6696985 1,16.3362334 1,16 C1,8.2680135 7.2680135,2 15,2 C15.3362334,2 15.6696985,2.01185303 16,2.03516405 Z M16,6.04937524 L16,8.06189375 C15.6724058,8.02104333 15.3386603,8 15,8 C10.581722,8 7,11.581722 7,16 C7,16.3386603 7.02104333,16.6724058 7.06189375,17 L5.04937524,17 C5.01671944,16.6710938 5,16.3374994 5,16 C5,10.4771525 9.4771525,6 15,6 C15.3374994,6 15.6710938,6.01671944 16,6.04937524 Z" id="Combined-Shape"></path>
        </g>
        <g id="DoubleArc" transform="translate(10.000000, 10.500000) rotate(-180.000000) translate(-10.000000, -10.500000) translate(2.000000, 2.000000)" fill="#9BD8D8">
            <path d="M16,2.03516405 L16,4.04107378 C15.6702666,4.01387133 15.3367532,4 15,4 C8.372583,4 3,9.372583 3,16 C3,16.3367532 3.01387133,16.6702666 3.04107378,17 L1.03516405,17 C1.01185303,16.6696985 1,16.3362334 1,16 C1,8.2680135 7.2680135,2 15,2 C15.3362334,2 15.6696985,2.01185303 16,2.03516405 Z M16,6.04937524 L16,8.06189375 C15.6724058,8.02104333 15.3386603,8 15,8 C10.581722,8 7,11.581722 7,16 C7,16.3386603 7.02104333,16.6724058 7.06189375,17 L5.04937524,17 C5.01671944,16.6710938 5,16.3374994 5,16 C5,10.4771525 9.4771525,6 15,6 C15.3374994,6 15.6710938,6.01671944 16,6.04937524 Z" id="Combined-Shape"></path>
        </g>
        <g id="DoubleArc" transform="translate(28.500000, 10.000000) rotate(-90.000000) translate(-28.500000, -10.000000) translate(20.500000, 1.500000)" fill="#9BD8D8">
            <path d="M16,2.03516405 L16,4.04107378 C15.6702666,4.01387133 15.3367532,4 15,4 C8.372583,4 3,9.372583 3,16 C3,16.3367532 3.01387133,16.6702666 3.04107378,17 L1.03516405,17 C1.01185303,16.6696985 1,16.3362334 1,16 C1,8.2680135 7.2680135,2 15,2 C15.3362334,2 15.6696985,2.01185303 16,2.03516405 Z M16,6.04937524 L16,8.06189375 C15.6724058,8.02104333 15.3386603,8 15,8 C10.581722,8 7,11.581722 7,16 C7,16.3386603 7.02104333,16.6724058 7.06189375,17 L5.04937524,17 C5.01671944,16.6710938 5,16.3374994 5,16 C5,10.4771525 9.4771525,6 15,6 C15.3374994,6 15.6710938,6.01671944 16,6.04937524 Z" id="Combined-Shape"></path>
        </g>
        <g id="DoubleArc" transform="translate(10.500000, 30.000000) rotate(-270.000000) translate(-10.500000, -30.000000) translate(2.500000, 21.500000)" fill="#9BD8D8">
            <path d="M16,2.03516405 L16,4.04107378 C15.6702666,4.01387133 15.3367532,4 15,4 C8.372583,4 3,9.372583 3,16 C3,16.3367532 3.01387133,16.6702666 3.04107378,17 L1.03516405,17 C1.01185303,16.6696985 1,16.3362334 1,16 C1,8.2680135 7.2680135,2 15,2 C15.3362334,2 15.6696985,2.01185303 16,2.03516405 Z M16,6.04937524 L16,8.06189375 C15.6724058,8.02104333 15.3386603,8 15,8 C10.581722,8 7,11.581722 7,16 C7,16.3386603 7.02104333,16.6724058 7.06189375,17 L5.04937524,17 C5.01671944,16.6710938 5,16.3374994 5,16 C5,10.4771525 9.4771525,6 15,6 C15.3374994,6 15.6710938,6.01671944 16,6.04937524 Z" id="Combined-Shape"></path>
        </g>
    </g>
</svg>