<?xml version="1.0" encoding="UTF-8"?>
<svg width="40" height="40" viewBox="0 0 40 40" version="1.1" xmlns="http://www.w3.org/2000/svg" xmlns:xlink="http://www.w3.org/1999/xlink">
    <g id="Artboard" stroke="none" stroke-width="1" fill="none" fill-rule="evenodd">
        <path d="M11.0204663,33.0758116 C3.71091774,33.0758116 -2.21464213,27.1895845 -2.21464213,19.9285554 C-2.21464213,12.6675263 3.71091774,6.78129917 11.0204663,6.78129917 C18.3300148,6.78129917 24.2555746,12.6675263 24.2555746,19.9285554 C24.2555746,27.1895845 18.3300148,33.0758116 11.0204663,33.0758116 Z M11.0204663,31.0531568 C17.2054689,31.0531568 22.2194041,26.0725031 22.2194041,19.9285554 C22.2194041,13.7846077 17.2054689,8.80395397 11.0204663,8.80395397 C4.83546366,8.80395397 -0.178471606,13.7846077 -0.178471606,19.9285554 C-0.178471606,26.0725031 4.83546366,31.0531568 11.0204663,31.0531568 Z" id="L-inner" fill="#D3CF5D"></path>
        <path d="M29.0204663,33.0758116 C21.7109177,33.0758116 15.7853579,27.1895845 15.7853579,19.9285554 C15.7853579,12.6675263 21.7109177,6.78129917 29.0204663,6.78129917 C36.3300148,6.78129917 42.2555746,12.6675263 42.2555746,19.9285554 C42.2555746,27.1895845 36.3300148,33.0758116 29.0204663,33.0758116 Z M29.0204663,31.0531568 C35.2054689,31.0531568 40.2194041,26.0725031 40.2194041,19.9285554 C40.2194041,13.7846077 35.2054689,8.80395397 29.0204663,8.80395397 C22.8354637,8.80395397 17.8215284,13.7846077 17.8215284,19.9285554 C17.8215284,26.0725031 22.8354637,31.0531568 29.0204663,31.0531568 Z" id="R-inner" fill="#9447CB"></path>
        <path d="M11.0204663,36.9426516 C1.56105052,36.9426516 -6.10732106,29.3251813 -6.10732106,19.9285554 C-6.10732106,10.5319295 1.56105052,2.91445911 11.0204663,2.91445911 C20.479882,2.91445911 28.1482536,10.5319295 28.1482536,19.9285554 C28.1482536,29.3251813 20.479882,36.9426516 11.0204663,36.9426516 Z M11.0433644,35.0319777 C19.4278465,35.0319777 26.2248122,28.280129 26.2248122,19.9513015 C26.2248122,11.622474 19.4278465,4.87062525 11.0433644,4.87062525 C2.65888224,4.87062525 -4.13808348,11.622474 -4.13808348,19.9513015 C-4.13808348,28.280129 2.65888224,35.0319777 11.0433644,35.0319777 Z" id="L-mid" fill="#D7D487"></path>
        <path d="M29.0204663,36.9426516 C19.5610505,36.9426516 11.8926789,29.3251813 11.8926789,19.9285554 C11.8926789,10.5319295 19.5610505,2.91445911 29.0204663,2.91445911 C38.479882,2.91445911 46.1482536,10.5319295 46.1482536,19.9285554 C46.1482536,29.3251813 38.479882,36.9426516 29.0204663,36.9426516 Z M29.0433644,35.0319777 C37.4278465,35.0319777 44.2248122,28.280129 44.2248122,19.9513015 C44.2248122,11.622474 37.4278465,4.87062525 29.0433644,4.87062525 C20.6588822,4.87062525 13.8619165,11.622474 13.8619165,19.9513015 C13.8619165,28.280129 20.6588822,35.0319777 29.0433644,35.0319777 Z" id="R-mid" fill="#B176DB"></path>
        <path d="M11.2773382,40.9099849 C22.8866211,40.9099849 32.2978044,31.5612713 32.2978044,20.0290486 C32.2978044,8.49682591 22.8866211,-0.851887723 11.2773382,-0.851887723 C-0.33194479,-0.851887723 -9.7431281,8.49682591 -9.7431281,20.0290486 C-9.7431281,31.5612713 -0.33194479,40.9099849 11.2773382,40.9099849 Z M11.3032894,39.0023438 C21.8376387,39.0023438 30.3774161,30.5192518 30.3774161,20.0548275 C30.3774161,9.59040324 21.8376387,1.10731124 11.3032894,1.10731124 C0.768940009,1.10731124 -7.77083744,9.59040324 -7.77083744,20.0548275 C-7.77083744,30.5192518 0.768940009,39.0023438 11.3032894,39.0023438 Z" id="L-outer" fill="#ECEAB5" transform="translate(11.277338, 20.029049) rotate(-270.000000) translate(-11.277338, -20.029049) "></path>
        <path d="M29.2773382,40.9099849 C17.6680552,40.9099849 8.2568719,31.5612713 8.2568719,20.0290486 C8.2568719,8.49682591 17.6680552,-0.851887723 29.2773382,-0.851887723 C40.8866211,-0.851887723 50.2978044,8.49682591 50.2978044,20.0290486 C50.2978044,31.5612713 40.8866211,40.9099849 29.2773382,40.9099849 Z M29.3032894,39.0023438 C39.8376387,39.0023438 48.3774161,30.5192518 48.3774161,20.0548275 C48.3774161,9.59040324 39.8376387,1.10731124 29.3032894,1.10731124 C18.76894,1.10731124 10.2291626,9.59040324 10.2291626,20.0548275 C10.2291626,30.5192518 18.76894,39.0023438 29.3032894,39.0023438 Z" id="R-outer" fill="#D1ADEB" transform="translate(29.277338, 20.029049) rotate(-270.000000) translate(-29.277338, -20.029049) "></path>
        <g id="border" fill="#FFFFFF">
            <rect id="Rectangle" transform="translate(1.000000, 20.000000) scale(-1, 1) translate(-1.000000, -20.000000) " x="0" y="0" width="2" height="40"></rect>
            <rect id="Rectangle" transform="translate(39.000000, 20.000000) scale(-1, 1) translate(-39.000000, -20.000000) " x="38" y="0" width="2" height="40"></rect>
            <rect id="Rectangle" transform="translate(20.500000, 39.000000) scale(-1, 1) translate(-20.500000, -39.000000) " x="1" y="38" width="39" height="2"></rect>
            <rect id="Rectangle" transform="translate(20.500000, 1.000000) scale(-1, 1) translate(-20.500000, -1.000000) " x="1" y="0" width="39" height="2"></rect>
        </g>
    </g>
</svg>