<?xml version="1.0" encoding="UTF-8"?>
<svg width="36px" height="36px" viewBox="0 0 36 36" version="1.1" xmlns="http://www.w3.org/2000/svg" xmlns:xlink="http://www.w3.org/1999/xlink" xmlns:sketch="http://www.bohemiancoding.com/sketch/ns">
    <defs><rect id="path-1" x="0" y="0" width="36" height="36"></rect></defs>
    <g id="Page-1" stroke="none" stroke-width="1" fill="none" fill-rule="evenodd" sketch:type="MSPage">
        <g id="Artboard-1" sketch:type="MSArtboardGroup" transform="translate(-12.000000, -12.000000)">
            <g id="feedCityRingDropsLogo" sketch:type="MSLayerGroup" transform="translate(12.000000, 12.000000)">
                <g id="Artboard">
                    <g id="Group">
                        <mask id="mask-2" sketch:name="Mask" fill="white">
                            <use xlink:href="#path-1"></use>
                        </mask>
                        <use id="Mask" fill="#FFFFFF" sketch:type="MSShapeGroup" xlink:href="#path-1"></use>
                        <g mask="url(#mask-2)" sketch:type="MSShapeGroup">
                            <g transform="translate(-12.000000, -3.000000)">
                                <path d="M21.0204663,34.0758116 C13.7109177,34.0758116 7.78535787,28.1895845 7.78535787,20.9285554 C7.78535787,13.6675263 13.7109177,7.78129917 21.0204663,7.78129917 C28.3300148,7.78129917 34.2555746,13.6675263 34.2555746,20.9285554 C34.2555746,28.1895845 28.3300148,34.0758116 21.0204663,34.0758116 L21.0204663,34.0758116 Z M21.0204663,32.0531568 C27.2054689,32.0531568 32.2194041,27.0725031 32.2194041,20.9285554 C32.2194041,14.7846077 27.2054689,9.80395397 21.0204663,9.80395397 C14.8354637,9.80395397 9.82152839,14.7846077 9.82152839,20.9285554 C9.82152839,27.0725031 14.8354637,32.0531568 21.0204663,32.0531568 L21.0204663,32.0531568 Z" id="L-inner" fill="#D4577F"></path>
                                <path d="M39.0204663,34.0758116 C31.7109177,34.0758116 25.7853579,28.1895845 25.7853579,20.9285554 C25.7853579,13.6675263 31.7109177,7.78129917 39.0204663,7.78129917 C46.3300148,7.78129917 52.2555746,13.6675263 52.2555746,20.9285554 C52.2555746,28.1895845 46.3300148,34.0758116 39.0204663,34.0758116 L39.0204663,34.0758116 Z M39.0204663,32.0531568 C45.2054689,32.0531568 50.2194041,27.0725031 50.2194041,20.9285554 C50.2194041,14.7846077 45.2054689,9.80395397 39.0204663,9.80395397 C32.8354637,9.80395397 27.8215284,14.7846077 27.8215284,20.9285554 C27.8215284,27.0725031 32.8354637,32.0531568 39.0204663,32.0531568 L39.0204663,32.0531568 Z" id="R-inner" fill="#47CBA2"></path>
                                <path d="M21.0204663,37.9426516 C11.5610505,37.9426516 3.89267894,30.3251813 3.89267894,20.9285554 C3.89267894,11.5319295 11.5610505,3.91445911 21.0204663,3.91445911 C30.479882,3.91445911 38.1482536,11.5319295 38.1482536,20.9285554 C38.1482536,30.3251813 30.479882,37.9426516 21.0204663,37.9426516 L21.0204663,37.9426516 Z M21.0433644,36.0319777 C29.4278465,36.0319777 36.2248122,29.280129 36.2248122,20.9513015 C36.2248122,12.622474 29.4278465,5.87062525 21.0433644,5.87062525 C12.6588822,5.87062525 5.86191652,12.622474 5.86191652,20.9513015 C5.86191652,29.280129 12.6588822,36.0319777 21.0433644,36.0319777 L21.0433644,36.0319777 Z" id="L-mid" fill="#E18DA8"></path>
                                <path d="M39.0204663,37.9426516 C29.5610505,37.9426516 21.8926789,30.3251813 21.8926789,20.9285554 C21.8926789,11.5319295 29.5610505,3.91445911 39.0204663,3.91445911 C48.479882,3.91445911 56.1482536,11.5319295 56.1482536,20.9285554 C56.1482536,30.3251813 48.479882,37.9426516 39.0204663,37.9426516 L39.0204663,37.9426516 Z M39.0433644,36.0319777 C47.4278465,36.0319777 54.2248122,29.280129 54.2248122,20.9513015 C54.2248122,12.622474 47.4278465,5.87062525 39.0433644,5.87062525 C30.6588822,5.87062525 23.8619165,12.622474 23.8619165,20.9513015 C23.8619165,29.280129 30.6588822,36.0319777 39.0433644,36.0319777 L39.0433644,36.0319777 Z" id="R-mid" fill="#80E5C5"></path>
                                <path d="M21.2773385,41.9099855 C32.8866214,41.9099855 42.2978047,32.5612719 42.2978047,21.0290492 C42.2978047,9.49682647 32.8866214,0.148112838 21.2773385,0.148112838 C9.66805547,0.148112838 0.256872162,9.49682647 0.256872162,21.0290492 C0.256872162,32.5612719 9.66805547,41.9099855 21.2773385,41.9099855 L21.2773385,41.9099855 Z M21.3032897,40.0023444 C31.837639,40.0023444 40.3774164,31.5192524 40.3774164,21.0548281 C40.3774164,10.5904038 31.837639,2.1073118 21.3032897,2.1073118 C10.7689403,2.1073118 2.22916282,10.5904038 2.22916282,21.0548281 C2.22916282,31.5192524 10.7689403,40.0023444 21.3032897,40.0023444 L21.3032897,40.0023444 Z" id="L-outer" fill="#B2E2F3" transform="translate(21.277338, 21.029049) rotate(90.000000) translate(-21.277338, -21.029049) "></path>
                                <path d="M39.2773385,41.9099855 C27.6680555,41.9099855 18.2568722,32.5612719 18.2568722,21.0290492 C18.2568722,9.49682647 27.6680555,0.148112838 39.2773385,0.148112838 C50.8866214,0.148112838 60.2978047,9.49682647 60.2978047,21.0290492 C60.2978047,32.5612719 50.8866214,41.9099855 39.2773385,41.9099855 L39.2773385,41.9099855 Z M39.3032897,40.0023444 C49.837639,40.0023444 58.3774164,31.5192524 58.3774164,21.0548281 C58.3774164,10.5904038 49.837639,2.1073118 39.3032897,2.1073118 C28.7689403,2.1073118 20.2291629,10.5904038 20.2291629,21.0548281 C20.2291629,31.5192524 28.7689403,40.0023444 39.3032897,40.0023444 L39.3032897,40.0023444 Z" id="R-outer" fill="#B2E2F3" transform="translate(39.277338, 21.029049) rotate(90.000000) translate(-39.277338, -21.029049) "></path>
                            </g>
                        </g>
                    </g>
                </g>
            </g>
            <g id="CornerHiding" sketch:type="MSLayerGroup" transform="translate(9.000000, 9.000000)" fill="#FFFFFF">
                <rect id="Rectangle-6" sketch:type="MSShapeGroup" transform="translate(3.500000, 3.500000) rotate(-30.000000) translate(-3.500000, -3.500000) " x="1" y="2" width="5" height="3"></rect>
                <rect id="Rectangle-6" sketch:type="MSShapeGroup" transform="translate(38.803043, 3.095936) rotate(-345.000000) translate(-38.803043, -3.095936) " x="36.3030431" y="1.59593635" width="5" height="3"></rect>
                <rect id="Rectangle-6" sketch:type="MSShapeGroup" transform="translate(37.803043, 39.095936) rotate(-15.000000) translate(-37.803043, -39.095936) " x="35.3030431" y="37.5959364" width="5" height="3"></rect>
                <rect id="Rectangle-6" sketch:type="MSShapeGroup" transform="translate(3.803043, 39.095936) rotate(-345.000000) translate(-3.803043, -39.095936) " x="1.30304313" y="37.5959364" width="5" height="3"></rect>
            </g>
        </g>
    </g>
</svg>